# AST/ASF file generated using VICON BodyLanguage
# -----------------------------------------------
:version 1.10
:name VICON
:units
  mass 1.0
  length 0.45
  angle deg
:documentation
   .ast/.asf automatically generated from VICON data using
   VICON BodyBuilder and BodyLanguage model FoxedUp or BRILLIANT.MOD
:root
   order TX TY TZ RX RY RZ
   axis XYZ
   position 0 0 0  
   orientation 0 0 0 
:bonedata
  begin
     id 1 
     name lhipjoint
     direction 0.710188 -0.616876 0.339259 
     length 2.5669 
     axis 0 0 0  XYZ
  end
  begin
     id 2 
     name lfemur
     direction 0.34202 -0.939693 0  
     length 7.12796  
     axis 0 0 20  XYZ
    dof rx ry rz
    limits (-160.0 20.0)
           (-70.0 70.0)
           (-60.0 70.0)
  end
  begin
     id 3 
     name ltibia
     direction 0.34202 -0.939693 0   
     length 7.58108   
     axis 0 0 20   XYZ
    dof rx
    limits (-10.0 170.0)
  end
  begin
     id 4 
     name lfoot
     direction 0.0669471 -0.183936 0.980656   
     length 2.17365   
     axis -90 7.62852e-016 20   XYZ
    dof rx rz
    limits (-45.0 90.0)
           (-70.0 20.0)
  end
  begin
     id 5 
     name ltoes
     direction 1.53508e-011 -4.21705e-011 1   
     length 1.09427   
     axis -90 7.62852e-016 20   XYZ
    dof rx
    limits (-90.0 20.0)
  end
  begin
     id 6 
     name rhipjoint
     direction -0.700191 -0.625589 0.34405   
     length 2.53115  
     axis 0 0 0  XYZ 
  end
  begin
     id 7 
     name rfemur
     direction -0.34202 -0.939693 0   
     length 7.33006   
     axis 0 0 -20   XYZ
    dof rx ry rz
    limits (-160.0 20.0)
           (-70.0 70.0)
           (-70.0 60.0)
  end
  begin
     id 8 
     name rtibia
     direction -0.34202 -0.939693 0   
     length 7.64926   
     axis 0 0 -20   XYZ
    dof rx
    limits (-10.0 170.0)
 end
 begin
     id 9 
     name rfoot
     direction -0.0688927 -0.189281 0.979503   
     length 2.20493  
     axis -90 -7.62852e-016 -20   XYZ
    dof rx rz
    limits (-45.0 90.0)
           (-20.0 70.0)
  end
  begin
     id 10 
     name rtoes
     direction -1.53567e-011 -4.21933e-011 1   
     length 1.10919   
     axis -90 -7.62852e-016 -20   XYZ
    dof rx
    limits (-90.0 20.0)
  end
  begin
     id 11 
     name lowerback
     direction -0.0167868 0.989873 -0.140959   
     length 2.14596   
     axis 0 0 0   XYZ
    dof rx ry rz
    limits (-20.0 45.0)
           (-30.0 30.0)
           (-30.0 30.0)
  end
  begin
     id 12 
     name upperback
     direction 0.0129109 0.998033 0.0613525   
     length 2.10457   
     axis 0 0 0   XYZ
    dof rx ry rz
    limits (-20.0 45.0)
           (-30.0 30.0)
           (-30.0 30.0)
  end
  begin
     id 13 
     name thorax
     direction 0.0177047 0.991119 0.131797   
     length 2.17652   
     axis 0 0 0   XYZ
    dof rx ry rz
    limits (-20.0 45.0)
           (-30.0 30.0)
           (-30.0 30.0)
  end
  begin
     id 14 
     name lowerneck
     direction -0.0336893 0.997548 0.0613464   
     length 1.8912   
     axis 0 0 0   XYZ
    dof rx ry rz
    limits (-20.0 45.0)
           (-30.0 30.0)
           (-30.0 30.0)
  end
  begin
     id 15 
     name upperneck
     direction 0.0435909 0.997179 -0.0611028   
     length 1.8829   
     axis 0 0 0   XYZ
    dof rx ry rz
    limits (-20.0 45.0)
           (-30.0 30.0)
           (-30.0 30.0)
  end
  begin
     id 16
     name head
     direction 0.0175076 0.999444 -0.0283782  
     length 1.93197  
     axis 0 0 0   XYZ
    dof rx ry rz
    limits (-20.0 45.0)
           (-30.0 30.0)
           (-30.0 30.0)
  end
  begin
     id 17 
     name lclavicle
     direction 0.919164 0.389875 0.0559876  
     length 3.60004  
     axis 0 0 0   XYZ
    dof ry rz
    limits (-20.0 10.0)
           (0.0 20.0)
  end
  begin
     id 18 
     name lhumerus
     direction 1 -4.48958e-011 6.89191e-027   
     length 5.43301   
     axis 180 -30 -90   XYZ
    dof rx ry rz
    limits (-60.0 90.0)
           (-90.0 90.0)
           (-90.0 90.0)
  end
  begin
     id 19
     name lradius
     direction 1 -4.4897e-011 3.24727e-027   
     length 3.15936   
     axis 180 -30 -90   XYZ
    dof rx
    limits (-10.0 170.0)
  end
  begin
     id 20
     name lwrist
     direction 1 -4.4897e-011 9.00228e-027   
     length 1.57968   
     axis -6.29373e-015 90 90   XYZ
    dof ry
    limits (-180.0 0.0)
 end
  begin
     id 21 
     name lhand
     direction 1 -4.48968e-011 1.80042e-026   
     length 0.712827   
     axis -1.14882e-014 90 90   XYZ
    dof rx rz
    limits (-90.0 90.0)
           (-45.0 45.0)
  end
  begin
     id 22 
     name lfingers
     direction 1 -4.49019e-011 3.60267e-026   
     length 0.574699   
     axis -2.29769e-014 90 90   XYZ
    dof rx
    limits (0.0 90.0)
  end
  begin
     id 23
     name lthumb
     direction 0.707107 -6.3498e-011 0.707107   
     length 0.825157   
     axis -90 45 5.37419e-014   XYZ
    dof rx rz
    limits (-45.0 45.0)
           (-45.0 45.0)
  end
  begin
     id 24 
     name rclavicle
     direction -0.890334 0.455305 -0.00132111   
     length 3.51494  
     axis 0 0 0   XYZ 
    dof ry rz
    limits (-10.0 20.0)
           (-20.0 0.0)
  end
  begin
     id 25 
     name rhumerus
     direction -1 -4.48967e-011 5.07175e-028  
     length 5.34194   
     axis 180 30 90   XYZ
    dof rx ry rz
    limits (-90.0 60.0)
           (-90.0 90.0)
           (-90.0 90.0)
  end
  begin
     id 26 
     name rradius
     direction -1 -4.48955e-011 3.30467e-027   
     length 3.19351   
     axis 180 30 90   XYZ
    dof rx
    limits (-10.0 170.0)
  end
  begin
     id 27 
     name rwrist
     direction -1 -4.48968e-011 9.00208e-027   
     length 1.59676   
     axis -6.29373e-015 -90 -90   XYZ
    dof ry
    limits (-180.0 0.0)
  end
  begin
     id 28
     name rhand
     direction -1 -4.49e-011 1.80099e-026   
     length 0.743862   
     axis -1.14882e-014 -90 -90   XYZ
    dof rx rz
    limits (-90.0 90.0)
           (-45.0 45.0)
  end
  begin
     id 29
     name rfingers
     direction -1 -4.49009e-011 3.6023e-026   
     length 0.599721   
     axis -2.29769e-014 -90 -90   XYZ
    dof rx
    limits (0.0 90.0)
  end
  begin
     id 30
     name rthumb
     direction -0.707107 -6.35025e-011 0.707107   
     length 0.861083   
     axis -90 -45 -5.37419e-014   XYZ
    dof rx rz
    limits (-45.0 45.0)
           (-45.0 45.0)
  end
:hierarchy
  begin
    root lhipjoint rhipjoint lowerback
    lhipjoint lfemur
    lfemur ltibia
    ltibia lfoot
    lfoot ltoes
    rhipjoint rfemur
    rfemur rtibia
    rtibia rfoot
    rfoot rtoes
    lowerback upperback
    upperback thorax
    thorax lowerneck lclavicle rclavicle
    lowerneck upperneck
    upperneck head
    lclavicle lhumerus
    lhumerus lradius
    lradius lwrist
    lwrist lhand lthumb
    lhand lfingers
    rclavicle rhumerus
    rhumerus rradius
    rradius rwrist
    rwrist rhand rthumb
    rhand rfingers
  end

#!OML:ASF H:\Martial Arts Walks\Project 1\Capture day 1\Session 1\male.ASF
:FULLY-SPECIFIED
:DEGREES
976
root -4.76776 15.1426 -23.1304 6.37865 -23.0309 -6.85388
lowerback 16.7308 -0.373666 1.33461
upperback -0.772069 0.227601 4.68586
thorax -10.3006 0.176633 4.31507
lowerneck -1.60491 5.8653 0.283995
upperneck -0.305587 7.81888 -0.886708
head 0.213092 3.90692 -0.259222
rclavicle 1.82882e-014 8.94531e-014
rhumerus 25.1562 43.7707 -65.2162
rradius 56.5794
rwrist 9.13409
rhand -25.1714 -51.0556
rfingers 7.12502
rthumb 1.34608 -81.0311
lclavicle 1.82882e-014 8.94531e-014
lhumerus 108.559 -48.967 18.8688
lradius 113.423
lwrist 27.6677
lhand -15.0644 400.733
lfingers 7.12502
lthumb 11.1027 70.4195
rfemur -32.0484 -6.14422 20.3317
rtibia 67.3298
rfoot -25.0806 -23.4536
rtoes -22.4177
lfemur -48.9511 16.2716 -15.6124
ltibia 100.187
lfoot -5.95901 11.8523
ltoes 6.76729
977
root -4.77259 15.1152 -23.0389 6.28448 -23.4343 -6.97151
lowerback 17.1042 -0.419581 1.69785
upperback -0.782148 0.260056 4.72745
thorax -10.5273 0.175058 4.15585
lowerneck -1.90032 6.13976 0.217614
upperneck -0.0187551 8.18924 -1.05624
head 0.355173 4.08969 -0.280557
rclavicle 5.06901e-015 -1.59028e-015
rhumerus 27.9328 46.2291 -63.4027
rradius 57.0886
rwrist 8.00721
rhand -25.6066 -53.2284
rfingers 7.12502
rthumb 0.925707 -83.2062
lclavicle 5.06901e-015 -1.59028e-015
lhumerus 108.263 -48.5952 19.2518
lradius 114.478
lwrist 26.87
lhand -15.9934 401.979
lfingers 7.12502
lthumb 10.2065 71.7114
rfemur -31.6736 -6.35531 20.1857
rtibia 67.4811
rfoot -25.4148 -23.299
rtoes -23.5338
lfemur -51.0852 18.1142 -16.946
ltibia 101.516
lfoot -6.47551 10.1187
ltoes 5.3897
978
root -4.77656 15.0851 -22.9435 6.1682 -23.8701 -7.03218
lowerback 17.5154 -0.462925 1.98195
upperback -0.812661 0.285144 4.76018
thorax -10.7984 0.173994 4.03611
lowerneck -2.0171 6.33958 0.176484
upperneck 0.173995 8.46016 -1.23428
head 0.441361 4.22291 -0.316259
rclavicle -3.05134e-014 -2.3059e-014
rhumerus 30.5776 48.5054 -61.5862
rradius 57.8255
rwrist 6.45337
rhand -24.8297 -52.7834
rfingers 7.12502
rthumb 1.67603 -82.7566
lclavicle -3.05134e-014 -2.3059e-014
lhumerus 107.556 -48.1797 19.5431
lradius 115.603
lwrist 25.7907
lhand -17.2945 403.421
lfingers 7.12502
lthumb 8.95113 73.2113
rfemur -31.2979 -6.56094 19.9588
rtibia 67.666
rfoot -25.771 -23.1683
rtoes -24.706
lfemur -53.2704 19.8795 -18.4483
ltibia 102.522
lfoot -6.92827 8.73637
ltoes 3.94156
979
root -4.7773 15.0557 -22.8406 6.07122 -24.3114 -6.99318
lowerback 17.9118 -0.451146 2.25238
upperback -0.900832 0.380375 4.73206
thorax -11.129 0.2049 3.83912
lowerneck -2.21083 6.41683 0.318953
upperneck 0.492939 8.56652 -1.49783
head 0.59097 4.27198 -0.402375
rclavicle -4.12478e-014 2.3059e-014
rhumerus 33.01 50.5808 -59.6755
rradius 58.825
rwrist 4.43178
rhand -24.8663 -53.5832
rfingers 7.12502
rthumb 1.64069 -83.5566
lclavicle -4.12478e-014 2.3059e-014
lhumerus 106.733 -47.6099 19.4943
lradius 116.841
lwrist 24.6363
lhand -18.555 404.696
lfingers 7.12502
lthumb 7.73468 74.5342
rfemur -31.0002 -6.85161 19.6011
rtibia 67.882
rfoot -26.0367 -23.0514
rtoes -25.8381
lfemur -55.5354 21.4341 -20.148
ltibia 103.196
lfoot -7.35912 7.65782
ltoes 2.52321
980
root -4.78111 15.0276 -22.7359 5.91618 -24.9899 -6.95281
lowerback 18.3263 -0.425882 2.33829
upperback -0.976697 0.462196 4.76394
thorax -11.4577 0.241554 3.81776
lowerneck -2.25631 6.63899 0.222859
upperneck 0.829002 8.87061 -1.53406
head 0.702441 4.4212 -0.385229
rclavicle 2.16675e-014 3.26007e-014
rhumerus 35.4603 52.8017 -57.5405
rradius 60.2197
rwrist 2.26975
rhand -24.5545 -54.2811
rfingers 7.12502
rthumb 1.94179 -84.252
lclavicle 2.16675e-014 3.26007e-014
lhumerus 105.176 -47.017 19.5588
lradius 118.039
lwrist 23.3583
lhand -19.6987 405.577
lfingers 7.12502
lthumb 6.63065 75.4529
rfemur -30.661 -6.90523 19.2291
rtibia 68.0985
rfoot -26.4629 -22.8035
rtoes -26.4851
lfemur -57.6877 23.0556 -21.7729
ltibia 103.563
lfoot -7.89714 6.66322
ltoes 1.5786
981
root -4.78221 14.9978 -22.6269 5.8411 -25.6001 -6.92816
lowerback 18.8635 -0.34895 2.29188
upperback -1.20379 0.612995 4.90569
thorax -12.0378 0.325784 3.98545
lowerneck -2.20907 6.77737 0.179044
upperneck 1.26132 9.06556 -1.68478
head 0.83624 4.5142 -0.412924
rclavicle 1.31198e-014 2.78299e-014
rhumerus 37.3907 54.9313 -55.503
rradius 61.9101
rwrist 0.504489
rhand -24.0295 -53.8495
rfingers 7.12502
rthumb 2.4489 -83.8151
lclavicle 1.31198e-014 2.78299e-014
lhumerus 103.291 -46.5574 19.6113
lradius 119.138
lwrist 22.0183
lhand -20.7504 406.358
lfingers 7.12502
lthumb 5.61531 76.2637
rfemur -30.4018 -7.05173 18.8722
rtibia 68.3294
rfoot -26.8861 -22.5064
rtoes -27.0463
lfemur -59.9527 24.3495 -23.3335
ltibia 103.658
lfoot -8.54433 5.84024
ltoes 0.144426
982
root -4.78139 14.9687 -22.5111 5.7896 -26.2737 -6.95868
lowerback 19.1023 -0.255751 2.79529
upperback -1.2607 0.844859 4.69464
thorax -12.2419 0.39301 3.39954
lowerneck -2.25067 6.79049 0.436559
upperneck 1.48117 9.07755 -1.62869
head 0.921464 4.5204 -0.429964
rclavicle 2.33572e-014 7.95139e-015
rhumerus 38.6114 56.2764 -54.3837
rradius 63.9031
rwrist -0.976503
rhand -23.7519 -54.8539
rfingers 7.12502
rthumb 2.71697 -84.8163
lclavicle 2.33572e-014 7.95139e-015
lhumerus 101.775 -45.8625 18.5704
lradius 120.36
lwrist 21.0453
lhand -21.6565 407.358
lfingers 7.12502
lthumb 4.74042 77.2849
rfemur -30.1261 -7.13023 18.5392
rtibia 68.5552
rfoot -27.3375 -22.1846
rtoes -27.4584
lfemur -62.1487 25.4992 -24.6906
ltibia 103.496
lfoot -9.2095 4.97609
ltoes -1.33178
983
root -4.78094 14.935 -22.3941 5.76496 -26.9582 -6.99206
lowerback 19.4435 -0.0609335 3.09198
upperback -1.38382 1.19125 4.60435
thorax -12.5872 0.530642 3.03653
lowerneck -2.25886 6.70584 0.619369
upperneck 1.72773 8.9627 -1.6352
head 1.008 4.46245 -0.457172
rclavicle 1.2921e-015 -1.03368e-014
rhumerus 38.9914 57.4845 -53.5519
rradius 66.3471
rwrist -2.29142
rhand -23.1975 -55.3141
rfingers 7.12502
rthumb 3.25233 -85.269
lclavicle 1.2921e-015 -1.03368e-014
lhumerus 99.8562 -45.262 17.5558
lradius 121.521
lwrist 20.5221
lhand -22.1359 407.163
lfingers 7.12502
lthumb 4.27757 77.1002
rfemur -29.9013 -7.14421 18.2076
rtibia 68.8218
rfoot -28.0595 -21.5768
rtoes -27.3634
lfemur -64.346 26.4277 -25.8344
ltibia 103.111
lfoot -9.66264 4.0742
ltoes -1.98358
984
root -4.78018 14.8999 -22.274 5.68469 -27.7482 -6.98534
lowerback 19.8061 0.272623 3.39987
upperback -1.43571 1.71255 4.42056
thorax -12.8586 0.741411 2.50141
lowerneck -2.5329 6.55028 0.929606
upperneck 1.94592 8.74523 -1.57488
head 1.13226 4.35416 -0.477877
rclavicle -1.92821e-014 7.95139e-015
rhumerus 37.919 58.2235 -53.8361
rradius 69.3065
rwrist -3.46631
rhand -22.7575 -55.1178
rfingers 7.12502
rthumb 3.67725 -85.0658
lclavicle -1.92821e-014 7.95139e-015
lhumerus 97.9854 -44.8133 16.2734
lradius 122.587
lwrist 20.7911
lhand -22.5748 407.716
lfingers 7.12502
lthumb 3.85367 77.6611
rfemur -29.6565 -6.91133 17.8262
rtibia 69.1139
rfoot -28.6516 -21.087
rtoes -27.2838
lfemur -66.3303 27.2699 -26.7175
ltibia 102.506
lfoot -9.90329 2.99214
ltoes -1.33233
985
root -4.77957 14.8592 -22.151 5.63125 -28.5202 -6.94994
lowerback 20.1224 0.555759 3.55673
upperback -1.56638 2.14803 4.34765
thorax -13.1952 0.925239 2.20038
lowerneck -2.39926 6.45083 0.910204
upperneck 2.03908 8.61118 -1.43197
head 1.12908 4.28925 -0.437163
rclavicle -3.61788e-014 7.95139e-015
rhumerus 35.9129 59.1698 -54.8952
rradius 72.5852
rwrist -4.85512
rhand -22.2131 -54.4041
rfingers 7.12502
rthumb 4.20297 -84.3424
lclavicle -3.61788e-014 7.95139e-015
lhumerus 95.1373 -44.6241 15.3468
lradius 123.583
lwrist 21.9408
lhand -22.3801 406.978
lfingers 7.12502
lthumb 4.04172 76.9194
rfemur -29.4994 -6.7619 17.4229
rtibia 69.455
rfoot -29.1287 -20.6916
rtoes -27.2911
lfemur -68.2495 27.8324 -27.3372
ltibia 101.706
lfoot -10.0543 1.79456
ltoes -1.35018
986
root -4.77792 14.824 -22.0253 5.56329 -29.3721 -6.91233
lowerback 20.4862 0.956586 3.53824
upperback -1.6789 2.71178 4.36782
thorax -13.5507 1.18279 2.05866
lowerneck -2.30704 6.3 0.949209
upperneck 2.1112 8.41291 -1.53152
head 1.14045 4.18927 -0.479215
rclavicle 1.55052e-014 4.53229e-014
rhumerus 32.4009 59.8341 -56.9248
rradius 76.3591
rwrist -6.51181
rhand -20.2549 -55.5566
rfingers 7.12502
rthumb 6.09373 -85.449
lclavicle 1.55052e-014 4.53229e-014
lhumerus 91.8054 -44.7349 14.7531
lradius 124.37
lwrist 23.9583
lhand -21.4355 406.077
lfingers 7.12502
lthumb 4.95382 75.9991
rfemur -29.3171 -6.49772 16.9991
rtibia 69.783
rfoot -29.6744 -20.1635
rtoes -26.9385
lfemur -69.8997 28.3669 -27.5946
ltibia 100.67
lfoot -10.3053 0.432134
ltoes -1.84446
